# xmcd
#
# Track frame offsets:
#	150
#	32010
#	59937
#	99142
#	128362
#	158387
#	185440
#
# Disc length: 2699 seconds
#
# Revision: 3
# Processed by: cddbd v1.5.2PL0 Copyright (c) Steve Scherf et al.
# Submitted via: EasyCDDAExtractor 12.1.0.1
#
DISCID=4c0a8907
DTITLE=SOS Band - Just The Way You Like It
DYEAR=1984
DGENRE=Soul
TTITLE0=No One's Gonna Love You
TTITLE1=Weekend Girl
TTITLE2=Just The Way You Like It
TTITLE3=Break Up
TTITLE4=Feeling
TTITLE5=I Don't Want Nobody Else
TTITLE6=Body Break
EXTD=YEAR: 1984
EXTT0=
EXTT1=
EXTT2=
EXTT3=
EXTT4=
EXTT5=
EXTT6=
PLAYORDER=
